<?xml version="1.0" standalone="no"?>
<!DOCTYPE svg PUBLIC "-//W3C//DTD SVG 20010904//EN"
 "http://www.w3.org/TR/2001/REC-SVG-20010904/DTD/svg10.dtd">
<svg version="1.0" xmlns="http://www.w3.org/2000/svg"
 width="500.000000pt" height="500.000000pt" viewBox="0 0 500.000000 500.000000"
 preserveAspectRatio="xMidYMid meet">

<g transform="translate(0.000000,500.000000) scale(0.100000,-0.100000)"
fill="#000000" stroke="none">
<path d="M2815 4248 c-42 -15 -65 -37 -86 -83 -23 -51 -24 -91 -1 -105 16 -11
16 -11 0 -6 -26 8 -22 -13 5 -24 45 -18 1229 -302 1235 -295 3 3 0 10 -7 14
-9 6 -9 10 -2 12 8 3 7 15 -1 42 -9 30 -9 43 0 58 7 11 10 25 6 32 -4 7 -4 9
1 5 4 -4 21 4 37 17 36 30 81 39 137 26 37 -8 42 -7 30 4 -8 8 -39 19 -69 24
l-55 10 63 -3 c67 -4 76 -1 37 14 -47 18 -1250 271 -1281 269 -11 0 -32 -5
-49 -11z m-28 -204 c-3 -3 -12 -4 -19 -1 -8 3 -5 6 6 6 11 1 17 -2 13 -5z m80
-20 c-3 -3 -12 -4 -19 -1 -8 3 -5 6 6 6 11 1 17 -2 13 -5z m1173 -58 c0 -2 -7
-7 -16 -10 -8 -3 -12 -2 -9 4 6 10 25 14 25 6z m-513 -102 c-3 -3 -12 -4 -19
-1 -8 3 -5 6 6 6 11 1 17 -2 13 -5z"/>
<path d="M2780 3754 c-58 -120 -119 -241 -135 -269 -32 -52 -43 -99 -22 -92
33 10 247 306 306 422 28 57 46 131 32 139 -3 2 -22 7 -41 11 l-36 6 -104
-217z"/>
<path d="M4035 3760 c-27 -10 -118 -122 -188 -230 -64 -98 -122 -210 -181
-348 l-42 -97 -95 -51 c-365 -196 -1290 -662 -1326 -668 -129 -19 -679 80
-1213 221 -126 33 -140 43 -133 88 3 19 2 35 -2 35 -16 0 -76 -42 -85 -60 -15
-29 -12 -91 6 -111 9 -10 132 -217 274 -461 247 -426 258 -443 288 -446 24 -2
32 1 32 13 0 11 6 15 18 11 40 -12 1080 -286 1086 -286 3 0 6 13 6 29 0 27 -5
32 -57 51 -62 23 -468 138 -848 241 -126 34 -236 66 -242 71 -13 10 -103 171
-103 183 0 4 8 4 18 0 9 -4 100 -32 201 -61 101 -30 187 -56 190 -60 3 -3 17
-37 31 -77 23 -63 30 -72 53 -75 23 -3 27 0 27 21 0 14 -9 44 -19 68 -11 24
-19 45 -17 46 1 2 118 -26 258 -61 140 -35 270 -66 289 -68 33 -3 34 -2 37 34
2 28 -1 37 -15 41 -10 3 -145 34 -301 68 -156 34 -289 67 -297 73 -16 12 -68
146 -57 146 4 0 122 -25 262 -56 308 -67 339 -72 351 -53 17 27 10 69 -13 79
-13 5 -142 32 -288 60 -146 28 -286 55 -311 61 l-47 10 -31 82 c-17 44 -29 82
-28 84 2 1 93 -15 203 -37 186 -36 378 -66 468 -72 l39 -3 129 -345 c181 -487
177 -478 195 -484 17 -7 233 152 517 379 214 171 259 215 262 253 1 18 -1 32
-5 32 -4 0 -77 -47 -162 -105 l-154 -105 -7 48 c-3 26 -6 76 -7 112 l0 65 113
79 c103 72 216 160 156 122 -41 -27 -47 -17 -10 15 19 16 -33 -13 -117 -65
l-152 -95 -5 42 c-3 23 -7 63 -9 88 l-4 46 216 129 c208 124 216 130 219 163
3 26 0 32 -11 28 -9 -3 -106 -58 -218 -122 -151 -86 -204 -112 -211 -103 -4 7
-8 32 -8 54 0 23 -2 54 -6 70 -5 28 -1 31 118 98 68 38 201 116 296 174 96 57
175 102 176 100 2 -2 -14 -66 -36 -143 -67 -245 -131 -597 -158 -874 l-11
-114 -43 -38 c-66 -58 -100 -142 -100 -249 -1 -143 52 -219 159 -228 40 -3 61
1 96 19 32 17 39 24 26 27 -18 4 -18 4 0 19 17 14 17 14 0 9 -30 -10 -84 20
-102 55 -38 72 5 183 81 215 53 22 74 17 115 -26 l37 -39 -5 57 c-10 106 -63
180 -142 197 l-34 7 7 90 c13 184 63 469 117 663 105 373 265 691 495 980 44
55 90 114 102 132 26 37 30 104 6 127 -17 17 -84 21 -119 6z m-1153 -1425 c3
-28 -3 -33 -230 -163 -129 -73 -236 -131 -239 -128 -13 13 -43 171 -33 174 18
6 271 138 375 196 l100 55 12 -52 c7 -29 13 -65 15 -82z m-1647 46 l230 -58
32 -84 c17 -46 30 -85 29 -86 -4 -4 -429 78 -453 87 -18 7 -133 191 -133 212
0 4 15 2 33 -3 17 -6 136 -37 262 -68z m1680 -231 c9 -41 14 -79 11 -85 -2 -7
-104 -74 -226 -150 -151 -94 -224 -135 -229 -126 -4 6 -16 46 -26 88 -17 75
-17 77 1 90 25 18 448 260 451 258 1 0 9 -34 18 -75z m315 76 c0 -2 -12 -12
-27 -21 l-28 -18 19 21 c17 20 36 29 36 18z m-1701 -164 c31 -7 37 -14 57 -67
38 -100 47 -97 -147 -54 -95 22 -177 39 -183 38 -6 0 18 -11 54 -24 78 -28 73
-30 -21 -9 l-69 16 -50 84 c-28 47 -50 88 -50 93 0 7 95 -11 409 -77z m1429
-139 c6 -38 14 -82 18 -100 l6 -31 -217 -145 -216 -145 -10 26 c-15 40 -51
173 -47 176 1 1 46 28 98 61 52 32 151 96 220 142 69 46 128 83 131 83 3 0 11
-30 17 -67z"/>
<path d="M2355 3388 c-11 -6 -37 -26 -58 -45 -152 -136 -603 -344 -1154 -533
-176 -60 -214 -83 -160 -93 l22 -4 -22 -2 c-13 0 -23 -7 -23 -15 0 -11 10 -11
66 0 424 89 1129 378 1340 550 38 30 42 38 42 80 1 43 -10 74 -27 74 -3 0 -15
-6 -26 -12z m-1118 -614 c-3 -3 -12 -4 -19 -1 -8 3 -5 6 6 6 11 1 17 -2 13 -5z
m-150 -40 c-3 -3 -12 -4 -19 -1 -8 3 -5 6 6 6 11 1 17 -2 13 -5z m-50 -10 c-3
-3 -12 -4 -19 -1 -8 3 -5 6 6 6 11 1 17 -2 13 -5z"/>
<path d="M2500 3366 c77 -82 256 -163 487 -221 140 -36 375 -75 448 -75 50 0
106 28 117 58 8 23 7 23 -24 -3 -33 -28 -33 -28 -148 -22 -285 15 -700 140
-850 256 -57 44 -67 47 -30 7z"/>
<path d="M1441 1478 c-18 -5 -57 -33 -86 -61 -66 -67 -90 -130 -90 -242 1
-138 55 -214 160 -223 40 -3 61 1 96 19 32 17 39 24 26 27 -18 4 -18 4 0 18
16 12 15 13 -15 14 -70 0 -107 50 -100 131 9 86 89 159 159 144 29 -7 79 -56
79 -79 0 -6 151 -70 338 -142 l337 -130 -3 -60 c-11 -201 108 -313 258 -242
33 15 40 22 27 25 -18 5 -18 5 0 19 16 12 15 13 -15 14 -45 0 -69 14 -88 52
-37 71 6 182 82 214 53 22 74 17 116 -27 l40 -42 -6 64 -7 64 112 85 c215 164
270 208 261 214 -4 3 -55 -32 -113 -76 -57 -45 -141 -110 -186 -145 -81 -63
-82 -64 -94 -41 -11 21 -11 22 4 10 14 -12 39 4 199 128 101 78 183 147 183
154 0 40 -121 -24 -347 -183 l-70 -50 -36 20 c-65 34 -155 19 -213 -37 -24
-23 -27 -24 -60 -10 -58 24 -260 76 -494 126 l-220 47 -6 45 c-12 80 -44 125
-112 153 -41 17 -66 18 -116 3z"/>
</g>
</svg>
